<svg width="1100" height="8" viewBox="0 0 1100 8" fill="none" xmlns="http://www.w3.org/2000/svg">
<g clip-path="url(#clip0_985_47564)">
<g opacity="0.5">
<path d="M0 6.96952C5.67936 6.96952 8.57218 5.04831 11.1246 3.35322C13.4291 1.82243 15.2497 0.613281 19.1399 0.613281C23.0298 0.613281 24.85 1.82243 27.1545 3.35294C29.7066 5.04831 32.5994 6.96952 38.2787 6.96952C43.9577 6.96952 46.8501 5.04803 49.4022 3.35294C51.7063 1.82215 53.5261 0.613281 57.4156 0.613281C61.3059 0.613281 63.126 1.82243 65.4305 3.35294C67.9826 5.04831 70.8755 6.96952 76.5548 6.96952C82.2345 6.96952 85.1269 5.04831 87.6794 3.35294C89.9839 1.82243 91.8046 0.613281 95.6943 0.613281C99.585 0.613281 101.405 1.82243 103.71 3.35294C106.262 5.04831 109.155 6.96952 114.835 6.96952C120.514 6.96952 123.407 5.04831 125.959 3.35294C128.264 1.82243 130.085 0.613281 133.974 0.613281C137.866 0.613281 139.686 1.82243 141.992 3.35322C144.544 5.04831 147.437 6.96952 153.117 6.96952" stroke="url(#paint0_linear_985_47564)"/>
<path d="M153.127 6.96953C158.806 6.96953 161.699 5.04831 164.251 3.35322C166.556 1.82243 168.376 0.613281 172.267 0.613281C176.156 0.613281 177.976 1.82243 180.281 3.35294C182.833 5.04831 185.726 6.96953 191.405 6.96953C197.084 6.96953 199.976 5.04803 202.529 3.35294C204.833 1.82215 206.652 0.613281 210.542 0.613281C214.432 0.613281 216.253 1.82243 218.557 3.35294C221.109 5.04831 224.002 6.96953 229.681 6.96953C235.361 6.96953 238.254 5.04831 240.806 3.35294C243.11 1.82243 244.931 0.613281 248.821 0.613281C252.711 0.613281 254.532 1.82243 256.837 3.35294C259.388 5.04831 262.282 6.96953 267.962 6.96953C273.641 6.96953 276.534 5.04831 279.086 3.35294C281.39 1.82243 283.211 0.613281 287.101 0.613281C290.993 0.613281 292.813 1.82243 295.118 3.35322C297.671 5.04831 300.564 6.96953 306.244 6.96953" stroke="url(#paint1_linear_985_47564)"/>
<path d="M306.242 6.96953C311.921 6.96953 314.814 5.04831 317.366 3.35322C319.671 1.82243 321.491 0.613281 325.382 0.613281C329.271 0.613281 331.092 1.82243 333.397 3.35294C335.948 5.04831 338.842 6.96953 344.52 6.96953C350.199 6.96953 353.092 5.04803 355.644 3.35294C357.948 1.82215 359.768 0.613281 363.657 0.613281C367.547 0.613281 369.368 1.82243 371.673 3.35294C374.224 5.04831 377.117 6.96953 382.797 6.96953C388.476 6.96953 391.369 5.04831 393.921 3.35294C396.225 1.82243 398.046 0.613281 401.936 0.613281C405.827 0.613281 407.647 1.82243 409.951 3.35294C412.504 5.04831 415.397 6.96953 421.077 6.96953C426.756 6.96953 429.649 5.04831 432.202 3.35294C434.506 1.82243 436.326 0.613281 440.216 0.613281C444.107 0.613281 445.928 1.82243 448.233 3.35322C450.786 5.04831 453.679 6.96953 459.359 6.96953" stroke="url(#paint2_linear_985_47564)"/>
<path d="M459.363 6.96953C465.043 6.96953 467.935 5.04831 470.488 3.35322C472.793 1.82243 474.613 0.613281 478.504 0.613281C482.393 0.613281 484.214 1.82243 486.518 3.35294C489.07 5.04831 491.963 6.96953 497.642 6.96953C503.321 6.96953 506.214 5.04803 508.765 3.35294C511.07 1.82215 512.89 0.613281 516.779 0.613281C520.67 0.613281 522.49 1.82243 524.794 3.35294C527.346 5.04831 530.239 6.96953 535.919 6.96953C541.599 6.96953 544.491 5.04831 547.043 3.35294C549.347 1.82243 551.168 0.613281 555.058 0.613281C558.949 0.613281 560.769 1.82243 563.073 3.35294C565.626 5.04831 568.518 6.96953 574.198 6.96953C579.878 6.96953 582.771 5.04831 585.323 3.35294C587.628 1.82243 589.448 0.613281 593.338 0.613281C597.229 0.613281 599.049 1.82243 601.355 3.35322C603.908 5.04831 606.8 6.96953 612.481 6.96953" stroke="url(#paint3_linear_985_47564)"/>
<path d="M612.49 6.96953C618.169 6.96953 621.062 5.04831 623.615 3.35322C625.919 1.82243 627.739 0.613281 631.63 0.613281C635.52 0.613281 637.34 1.82243 639.645 3.35294C642.196 5.04831 645.09 6.96953 650.768 6.96953C656.448 6.96953 659.341 5.04803 661.892 3.35294C664.196 1.82215 666.017 0.613281 669.906 0.613281C673.796 0.613281 675.616 1.82243 677.921 3.35294C680.472 5.04831 683.366 6.96953 689.045 6.96953C694.725 6.96953 697.617 5.04831 700.17 3.35294C702.474 1.82243 704.295 0.613281 708.184 0.613281C712.075 0.613281 713.895 1.82243 716.2 3.35294C718.753 5.04831 721.645 6.96953 727.325 6.96953C733.005 6.96953 735.897 5.04831 738.45 3.35294C740.755 1.82243 742.575 0.613281 746.464 0.613281C750.356 0.613281 752.176 1.82243 754.481 3.35322C757.034 5.04831 759.927 6.96953 765.607 6.96953" stroke="url(#paint4_linear_985_47564)"/>
<path d="M765.609 6.96953C771.288 6.96953 774.182 5.04831 776.733 3.35322C779.038 1.82243 780.858 0.613281 784.749 0.613281C788.638 0.613281 790.459 1.82243 792.764 3.35294C795.315 5.04831 798.209 6.96953 803.888 6.96953C809.566 6.96953 812.459 5.04803 815.011 3.35294C817.315 1.82215 819.135 0.613281 823.024 0.613281C826.915 0.613281 828.735 1.82243 831.04 3.35294C833.592 5.04831 836.485 6.96953 842.164 6.96953C847.844 6.96953 850.736 5.04831 853.289 3.35294C855.593 1.82243 857.414 0.613281 861.303 0.613281C865.194 0.613281 867.014 1.82243 869.319 3.35294C871.871 5.04831 874.764 6.96953 880.444 6.96953C886.124 6.96953 889.016 5.04831 891.569 3.35294C893.873 1.82243 895.693 0.613281 899.584 0.613281C903.475 0.613281 905.295 1.82243 907.6 3.35322C910.153 5.04831 913.046 6.96953 918.726 6.96953" stroke="url(#paint5_linear_985_47564)"/>
<path d="M918.723 6.96953C924.401 6.96953 927.295 5.04831 929.847 3.35322C932.151 1.82243 933.972 0.613281 937.862 0.613281C941.752 0.613281 943.572 1.82243 945.877 3.35294C948.429 5.04831 951.322 6.96953 957.001 6.96953C962.68 6.96953 965.572 5.04803 968.125 3.35294C970.429 1.82215 972.248 0.613281 976.137 0.613281C980.028 0.613281 981.848 1.82243 984.153 3.35294C986.705 5.04831 989.598 6.96953 995.277 6.96953C1000.96 6.96953 1003.85 5.04831 1006.41 3.35294C1008.7 1.82243 1010.52 0.613281 1014.42 0.613281C1018.31 0.613281 1020.12 1.82243 1022.43 3.35294C1024.99 5.04831 1027.88 6.96953 1033.56 6.96953C1039.24 6.96953 1042.13 5.04831 1044.68 3.35294C1046.99 1.82243 1048.81 0.613281 1052.69 0.613281C1056.59 0.613281 1058.41 1.82243 1060.72 3.35322C1063.26 5.04831 1066.16 6.96953 1071.84 6.96953" stroke="url(#paint6_linear_985_47564)"/>
<path d="M1071.85 6.96953C1077.52 6.96953 1080.42 5.04831 1082.98 3.35322C1085.27 1.82243 1087.09 0.613281 1090.99 0.613281C1094.87 0.613281 1096.69 1.82243 1099 3.35294" stroke="url(#paint7_linear_985_47564)"/>
</g>
</g>
<defs>
<linearGradient id="paint0_linear_985_47564" x1="6.65727" y1="3.7914" x2="7.12135" y2="-4.43988" gradientUnits="userSpaceOnUse">
<stop stop-color="#FF5858"/>
<stop offset="1" stop-color="#C058FF"/>
</linearGradient>
<linearGradient id="paint1_linear_985_47564" x1="159.784" y1="3.7914" x2="160.248" y2="-4.43988" gradientUnits="userSpaceOnUse">
<stop stop-color="#FF5858"/>
<stop offset="1" stop-color="#C058FF"/>
</linearGradient>
<linearGradient id="paint2_linear_985_47564" x1="312.899" y1="3.7914" x2="313.364" y2="-4.43988" gradientUnits="userSpaceOnUse">
<stop stop-color="#FF5858"/>
<stop offset="1" stop-color="#C058FF"/>
</linearGradient>
<linearGradient id="paint3_linear_985_47564" x1="466.021" y1="3.7914" x2="466.485" y2="-4.43988" gradientUnits="userSpaceOnUse">
<stop stop-color="#FF5858"/>
<stop offset="1" stop-color="#C058FF"/>
</linearGradient>
<linearGradient id="paint4_linear_985_47564" x1="619.147" y1="3.7914" x2="619.612" y2="-4.43988" gradientUnits="userSpaceOnUse">
<stop stop-color="#FF5858"/>
<stop offset="1" stop-color="#C058FF"/>
</linearGradient>
<linearGradient id="paint5_linear_985_47564" x1="772.266" y1="3.7914" x2="772.731" y2="-4.43988" gradientUnits="userSpaceOnUse">
<stop stop-color="#FF5858"/>
<stop offset="1" stop-color="#C058FF"/>
</linearGradient>
<linearGradient id="paint6_linear_985_47564" x1="925.38" y1="3.7914" x2="925.844" y2="-4.43988" gradientUnits="userSpaceOnUse">
<stop stop-color="#FF5858"/>
<stop offset="1" stop-color="#C058FF"/>
</linearGradient>
<linearGradient id="paint7_linear_985_47564" x1="1073.02" y1="3.7914" x2="1075.41" y2="-3.70809" gradientUnits="userSpaceOnUse">
<stop stop-color="#FF5858"/>
<stop offset="1" stop-color="#C058FF"/>
</linearGradient>
<clipPath id="clip0_985_47564">
<rect width="1100" height="8" fill="white"/>
</clipPath>
</defs>
</svg>
