<svg width="142" height="32" viewBox="0 0 142 32" fill="none" xmlns="http://www.w3.org/2000/svg">
<rect width="32" height="32" rx="8" fill="white"/>
<path d="M14.6836 3H11.8461V10.3682H5V22.2584H14.6836V19.3662H7.83752V13.2604H14.6836V3Z" fill="#EBA64D"/>
<path d="M17.9492 29.6266H20.7867V22.2583H27.6328L27.6328 10.3682H17.9492V13.2604H24.7953V19.3661H17.9492V29.6266Z" fill="#EB653A"/>
<path d="M47 21H43.4091V9.36364H47.1591C48.2879 9.36364 49.2538 9.59659 50.0568 10.0625C50.8598 10.5246 51.4754 11.1894 51.9034 12.0568C52.3314 12.9205 52.5455 13.9545 52.5455 15.1591C52.5455 16.3712 52.3295 17.4148 51.8977 18.2898C51.4659 19.161 50.8371 19.8314 50.0114 20.3011C49.1856 20.767 48.1818 21 47 21ZM44.8182 19.75H46.9091C47.8712 19.75 48.6686 19.5644 49.3011 19.1932C49.9337 18.822 50.4053 18.2936 50.7159 17.608C51.0265 16.9223 51.1818 16.1061 51.1818 15.1591C51.1818 14.2197 51.0284 13.411 50.7216 12.733C50.4148 12.0511 49.9564 11.5284 49.3466 11.1648C48.7367 10.7973 47.9773 10.6136 47.0682 10.6136H44.8182V19.75ZM56.3182 9.36364V21H54.9091V9.36364H56.3182ZM67.098 13C66.973 12.6174 66.8082 12.2746 66.6037 11.9716C66.4029 11.6648 66.1624 11.4034 65.8821 11.1875C65.6056 10.9716 65.2912 10.8068 64.9389 10.6932C64.5866 10.5795 64.2003 10.5227 63.7798 10.5227C63.0904 10.5227 62.4635 10.7008 61.8991 11.0568C61.3348 11.4129 60.8859 11.9375 60.5526 12.6307C60.2192 13.3239 60.0526 14.1742 60.0526 15.1818C60.0526 16.1894 60.2211 17.0398 60.5582 17.733C60.8954 18.4261 61.3518 18.9508 61.9276 19.3068C62.5033 19.6629 63.151 19.8409 63.8707 19.8409C64.5374 19.8409 65.1245 19.6989 65.6321 19.4148C66.1435 19.1269 66.5412 18.7216 66.8253 18.1989C67.1132 17.6723 67.2571 17.053 67.2571 16.3409L67.6889 16.4318H64.1889V15.1818H68.6207V16.4318C68.6207 17.3902 68.4162 18.2235 68.0071 18.9318C67.6018 19.6402 67.0412 20.1894 66.3253 20.5795C65.6132 20.9659 64.795 21.1591 63.8707 21.1591C62.8404 21.1591 61.9351 20.9167 61.1548 20.4318C60.3783 19.947 59.7723 19.2576 59.3366 18.3636C58.9048 17.4697 58.6889 16.4091 58.6889 15.1818C58.6889 14.2614 58.812 13.4337 59.0582 12.6989C59.3082 11.9602 59.6605 11.3314 60.1151 10.8125C60.5696 10.2936 61.1075 9.89583 61.7287 9.61932C62.3499 9.3428 63.0336 9.20455 63.7798 9.20455C64.3935 9.20455 64.9654 9.29735 65.4957 9.48295C66.0298 9.66477 66.5052 9.92424 66.9219 10.2614C67.3423 10.5947 67.6927 10.9943 67.973 11.4602C68.2533 11.9223 68.4465 12.4356 68.5526 13H67.098ZM72.4432 9.36364V21H71.0341V9.36364H72.4432ZM75.2685 21V9.36364H79.2003C80.1132 9.36364 80.8594 9.52841 81.4389 9.85795C82.0223 10.1837 82.4541 10.625 82.7344 11.1818C83.0147 11.7386 83.1548 12.3598 83.1548 13.0455C83.1548 13.7311 83.0147 14.3542 82.7344 14.9148C82.4579 15.4754 82.0298 15.9223 81.4503 16.2557C80.8707 16.5852 80.1283 16.75 79.223 16.75H76.4048V15.5H79.1776C79.8026 15.5 80.3045 15.392 80.6832 15.1761C81.062 14.9602 81.3366 14.6686 81.5071 14.3011C81.6813 13.9299 81.7685 13.5114 81.7685 13.0455C81.7685 12.5795 81.6813 12.1629 81.5071 11.7955C81.3366 11.428 81.0601 11.1402 80.6776 10.9318C80.295 10.7197 79.7874 10.6136 79.1548 10.6136H76.6776V21H75.2685ZM85.4247 21V9.36364H89.3565C90.2694 9.36364 91.0156 9.52841 91.5952 9.85795C92.1785 10.1837 92.6103 10.625 92.8906 11.1818C93.1709 11.7386 93.3111 12.3598 93.3111 13.0455C93.3111 13.7311 93.1709 14.3542 92.8906 14.9148C92.6141 15.4754 92.1861 15.9223 91.6065 16.2557C91.027 16.5852 90.2846 16.75 89.3793 16.75H86.5611V15.5H89.3338C89.9588 15.5 90.4607 15.392 90.8395 15.1761C91.2183 14.9602 91.4929 14.6686 91.6634 14.3011C91.8376 13.9299 91.9247 13.5114 91.9247 13.0455C91.9247 12.5795 91.8376 12.1629 91.6634 11.7955C91.4929 11.428 91.2164 11.1402 90.8338 10.9318C90.4512 10.7197 89.9437 10.6136 89.3111 10.6136H86.8338V21H85.4247ZM95.581 21V9.36364H96.9901V19.75H102.399V21H95.581ZM112.217 9.36364H113.626V17.0682C113.626 17.8636 113.439 18.5739 113.064 19.1989C112.693 19.8201 112.168 20.3106 111.49 20.6705C110.812 21.0265 110.017 21.2045 109.104 21.2045C108.191 21.2045 107.395 21.0265 106.717 20.6705C106.039 20.3106 105.513 19.8201 105.138 19.1989C104.767 18.5739 104.581 17.8636 104.581 17.0682V9.36364H105.99V16.9545C105.99 17.5227 106.115 18.0284 106.365 18.4716C106.615 18.911 106.971 19.2576 107.433 19.5114C107.899 19.7614 108.456 19.8864 109.104 19.8864C109.751 19.8864 110.308 19.7614 110.774 19.5114C111.24 19.2576 111.596 18.911 111.842 18.4716C112.092 18.0284 112.217 17.5227 112.217 16.9545V9.36364ZM122.804 12.2727C122.736 11.697 122.459 11.25 121.974 10.9318C121.49 10.6136 120.895 10.4545 120.19 10.4545C119.675 10.4545 119.224 10.5379 118.838 10.7045C118.455 10.8712 118.156 11.1004 117.94 11.392C117.728 11.6837 117.622 12.0152 117.622 12.3864C117.622 12.697 117.696 12.964 117.844 13.1875C117.995 13.4072 118.188 13.5909 118.423 13.7386C118.658 13.8826 118.904 14.0019 119.162 14.0966C119.42 14.1875 119.656 14.2614 119.872 14.3182L121.054 14.6364C121.357 14.7159 121.694 14.8258 122.065 14.9659C122.44 15.1061 122.798 15.2973 123.139 15.5398C123.484 15.7784 123.768 16.0852 123.991 16.4602C124.215 16.8352 124.327 17.2955 124.327 17.8409C124.327 18.4697 124.162 19.0379 123.832 19.5455C123.507 20.053 123.029 20.4564 122.401 20.7557C121.776 21.0549 121.016 21.2045 120.122 21.2045C119.289 21.2045 118.567 21.0701 117.957 20.8011C117.351 20.5322 116.874 20.1572 116.526 19.6761C116.181 19.1951 115.986 18.6364 115.94 18H117.395C117.433 18.4394 117.58 18.803 117.838 19.0909C118.099 19.375 118.429 19.5871 118.827 19.7273C119.228 19.8636 119.66 19.9318 120.122 19.9318C120.66 19.9318 121.143 19.8447 121.571 19.6705C121.999 19.4924 122.338 19.2462 122.588 18.9318C122.838 18.6136 122.963 18.2424 122.963 17.8182C122.963 17.4318 122.855 17.1174 122.639 16.875C122.423 16.6326 122.139 16.4356 121.787 16.2841C121.435 16.1326 121.054 16 120.645 15.8864L119.213 15.4773C118.304 15.2159 117.584 14.8428 117.054 14.358C116.524 13.8731 116.259 13.2386 116.259 12.4545C116.259 11.803 116.435 11.2348 116.787 10.75C117.143 10.2614 117.62 9.88258 118.219 9.61364C118.821 9.34091 119.493 9.20455 120.236 9.20455C120.986 9.20455 121.652 9.33901 122.236 9.60795C122.819 9.87311 123.281 10.2367 123.622 10.6989C123.967 11.161 124.149 11.6856 124.168 12.2727H122.804Z" fill="#F45E29"/>
</svg>
